<svg width="33" height="64" viewBox="0 0 33 64" fill="none" xmlns="http://www.w3.org/2000/svg">
<path fill-rule="evenodd" clip-rule="evenodd" d="M32.0009 1.184C32.0653 0.608 32.0009 0.672 31.7755 0.16C31.7111 0.064 31.6146 0 31.4858 0C31.1317 0 30.5522 0.448 30.2303 0.8C28.0411 3.232 25.3691 7.328 23.9526 7.808C23.2443 8.064 22.5683 6.816 22.0854 6.368C20.1538 4.48 17.6749 2.368 13.6508 1.12C11.526 0.416 9.72322 -0.192 9.04716 0.128C7.79163 0.704 9.59445 1.856 10.3027 2.624C10.85 3.2 11.4617 3.136 12.1055 2.848C12.5884 2.656 13.1679 2.656 13.6508 2.848C17.2886 4.32 19.349 5.728 21.4415 7.968C22.1176 8.736 22.5361 9.696 21.8922 10.304C19.7353 12.384 17.4818 14.592 15.357 16.704C14.8741 17.184 14.2946 17.824 13.683 17.792C13.2967 17.76 12.685 17.344 12.3309 17.12C11.7192 16.704 11.1719 16.48 10.5924 16.032C10.0773 15.648 9.98077 15.296 9.94857 14.656C9.91638 13.6 10.1739 12.704 10.3349 11.904C10.5924 10.464 10.9144 9.024 11.2041 7.552C11.4295 6.432 11.5582 4.992 11.4617 3.808C11.3651 3.52 10.8822 3.456 10.5602 3.68C10.4315 4.288 10.4315 4.288 10.3027 4.928C10.1739 5.6 10.0452 6.816 9.91638 7.488C9.53006 9.6 9.01497 11.2 8.66085 13.952C8.59646 14.368 8.49988 15.072 8.4355 15.584C8.37111 16.288 8.59646 17.152 8.37111 17.6C8.08137 18.24 7.82382 18.752 7.98479 19.616C8.11356 20.448 7.9204 20.672 7.40531 21.088C6.66487 21.696 5.02302 22.912 4.08942 23.456C3.57433 23.776 2.93047 24.384 3.31678 25.024C3.67091 25.664 4.47574 25.792 5.18399 25.824C6.27855 25.888 7.66286 24.48 8.72523 24.256C9.14374 24.16 9.72322 24 10.0773 24.288C10.528 24.608 10.6246 25.12 10.7212 25.632C11.1397 27.552 11.0109 28.544 10.8822 30.592C10.7856 31.808 10.4959 34.016 10.0773 35.168C9.75541 36.064 9.43348 36.448 8.69304 37.088C8.01698 37.664 7.21216 38.464 6.9868 39.872C6.89022 40.544 7.34093 42.144 6.63268 43.968C5.95662 45.696 5.86004 46.08 5.15179 47.712C4.79767 48.544 4.44354 49.568 4.05723 50.592C3.38117 52.384 3.28459 52.256 2.73731 54.08C2.44757 55.072 1.99686 56.512 1.70713 57.504C1.19204 59.136 1.3852 59.04 0.580366 60.704C0.355014 61.12 -0.256656 62.432 0.194048 63.264C0.387207 63.616 0.902298 64 1.28862 64C1.32081 64 1.353 64 1.3852 64C2.19002 63.808 2.80169 63.52 3.18801 62.72C3.54214 61.984 3.34898 60.928 3.60652 60.16C4.186 58.4 4.76548 56.608 5.53811 54.912C6.37513 53.088 6.27855 52.384 7.019 50.464C7.82382 48.288 8.37111 46.944 9.53006 44.96C10.9144 42.624 14.52 39.456 16.0653 38.336C18.4798 36.64 19.9928 35.52 19.6709 37.472C19.4134 39.136 16.5804 43.296 15.9687 44.672C15.6468 45.344 15.6146 46.048 15.9043 46.624C16.2584 47.36 17.0633 48.352 17.8681 48.288C18.6085 48.256 19.2524 47.264 19.027 46.56C18.7373 45.696 18.7051 45.056 19.7675 43.008C21.0874 40.48 23.18 36.864 22.7936 33.696C22.6649 32.544 21.2806 31.968 20.1538 32.352C18.8661 32.8 16.7413 34.496 15.4214 35.2C14.52 35.68 13.8761 35.872 13.7796 34.912C13.683 34.016 13.8761 32.96 13.9405 32.032C14.2303 28.736 14.0371 27.552 14.359 24.64C14.4556 23.808 15.2926 22.688 16.0009 23.328C18.2544 25.312 21.1518 27.616 23.4053 29.408C24.3389 30.144 24.7574 30.784 25.2081 32.096C25.4335 32.736 25.2403 33.696 25.015 34.592C24.9184 35.008 25.1115 35.616 26.013 35.008C28.1055 32.192 29.522 27.616 29.522 24.064C29.5542 20.928 29.9083 17.536 26.528 12.032C25.9808 11.136 24.693 9.152 25.9486 7.84C27.7192 5.92 31.2282 2.688 32.0009 1.184ZM27.7514 20.48C27.848 21.696 27.8802 22.624 27.8802 23.84C27.8802 24.64 27.5904 25.632 27.4295 26.72C27.3329 27.456 27.2685 28.512 26.9144 29.568C26.85 29.728 26.6568 30.208 26.3027 30.208C25.9164 30.24 25.7876 29.728 25.5944 29.504C24.9184 28.736 24.3711 28 23.6307 27.392C22.9224 26.848 21.7313 26.016 20.9586 25.536C20.2504 25.056 19.5099 24.256 18.8017 23.744C18.0612 23.2 17.3852 22.688 16.7091 22.048C16.516 21.888 16.2906 21.6 16.194 21.408C16.0331 21.024 16.0331 20.544 16.1619 20.192C16.3228 19.648 16.6769 19.168 16.9989 18.688C17.4174 18.08 17.8681 17.504 18.351 16.96C18.6407 16.64 19.1236 16.192 19.4777 15.968C20.025 15.648 20.2504 15.552 20.7011 15.104C21.1518 14.688 21.1196 14.272 21.5703 13.824C22.021 13.376 22.5683 12.512 23.1156 12.128C23.3409 11.968 23.7272 11.808 23.9848 11.936C24.3389 12.064 24.693 12.512 24.8862 12.832C26.3671 15.456 27.526 17.632 27.7514 20.48Z" fill="#1F4766"/>
</svg>
